<mxfile host="Electron" agent="Mozilla/5.0 (Windows NT 10.0; Win64; x64) AppleWebKit/537.36 (KHTML, like Gecko) draw.io/26.0.4 Chrome/128.0.6613.186 Electron/32.2.5 Safari/537.36" version="26.0.4">
  <diagram name="第 1 页" id="li4cUu2ZTwul1CZ7T9vY">
    <mxGraphModel dx="683" dy="398" grid="1" gridSize="10" guides="1" tooltips="1" connect="1" arrows="1" fold="1" page="1" pageScale="1" pageWidth="827" pageHeight="1169" math="0" shadow="0">
      <root>
        <mxCell id="0" />
        <mxCell id="1" parent="0" />
        <mxCell id="H-k1TDCtX4CPtIYfMN0x-1" value="我是原點" style="text;html=1;align=center;verticalAlign=middle;resizable=0;points=[];autosize=1;strokeColor=default;" parent="1" vertex="1">
          <mxGeometry x="80" y="180" width="70" height="30" as="geometry" />
        </mxCell>
        <mxCell id="H-k1TDCtX4CPtIYfMN0x-2" value="哇！我要重複做，做5次" style="text;html=1;align=center;verticalAlign=middle;resizable=0;points=[];autosize=1;strokeColor=#d6b656;fillColor=#fff2cc;" parent="1" vertex="1">
          <mxGeometry x="206" y="180" width="150" height="30" as="geometry" />
        </mxCell>
        <mxCell id="H-k1TDCtX4CPtIYfMN0x-3" value="我做第0次" style="text;html=1;align=center;verticalAlign=middle;resizable=0;points=[];autosize=1;strokeColor=default;" parent="1" vertex="1">
          <mxGeometry x="241" y="230" width="80" height="30" as="geometry" />
        </mxCell>
        <mxCell id="H-k1TDCtX4CPtIYfMN0x-4" value="我做第1次" style="text;html=1;align=center;verticalAlign=middle;resizable=0;points=[];autosize=1;strokeColor=default;" parent="1" vertex="1">
          <mxGeometry x="241" y="270" width="80" height="30" as="geometry" />
        </mxCell>
        <mxCell id="H-k1TDCtX4CPtIYfMN0x-5" value="我做第2次" style="text;html=1;align=center;verticalAlign=middle;resizable=0;points=[];autosize=1;strokeColor=default;" parent="1" vertex="1">
          <mxGeometry x="241" y="310" width="80" height="30" as="geometry" />
        </mxCell>
        <mxCell id="H-k1TDCtX4CPtIYfMN0x-6" value="我做第3次" style="text;html=1;align=center;verticalAlign=middle;resizable=0;points=[];autosize=1;strokeColor=default;" parent="1" vertex="1">
          <mxGeometry x="241" y="350" width="80" height="30" as="geometry" />
        </mxCell>
        <mxCell id="H-k1TDCtX4CPtIYfMN0x-9" value="我做第4次" style="text;html=1;align=center;verticalAlign=middle;resizable=0;points=[];autosize=1;strokeColor=default;" parent="1" vertex="1">
          <mxGeometry x="241" y="390" width="80" height="30" as="geometry" />
        </mxCell>
        <mxCell id="H-k1TDCtX4CPtIYfMN0x-13" style="edgeStyle=orthogonalEdgeStyle;rounded=0;orthogonalLoop=1;jettySize=auto;html=1;entryX=0.007;entryY=0.598;entryDx=0;entryDy=0;entryPerimeter=0;exitX=-0.048;exitY=0.473;exitDx=0;exitDy=0;exitPerimeter=0;" parent="1" source="H-k1TDCtX4CPtIYfMN0x-3" target="H-k1TDCtX4CPtIYfMN0x-4" edge="1">
          <mxGeometry relative="1" as="geometry">
            <Array as="points">
              <mxPoint x="221" y="244" />
              <mxPoint x="221" y="288" />
            </Array>
          </mxGeometry>
        </mxCell>
        <mxCell id="H-k1TDCtX4CPtIYfMN0x-14" style="edgeStyle=orthogonalEdgeStyle;rounded=0;orthogonalLoop=1;jettySize=auto;html=1;entryX=0.007;entryY=0.598;entryDx=0;entryDy=0;entryPerimeter=0;exitX=-0.048;exitY=0.473;exitDx=0;exitDy=0;exitPerimeter=0;" parent="1" edge="1">
          <mxGeometry relative="1" as="geometry">
            <mxPoint x="236" y="280" as="sourcePoint" />
            <mxPoint x="241" y="324" as="targetPoint" />
            <Array as="points">
              <mxPoint x="220" y="280" />
              <mxPoint x="220" y="324" />
            </Array>
          </mxGeometry>
        </mxCell>
        <mxCell id="H-k1TDCtX4CPtIYfMN0x-15" style="edgeStyle=orthogonalEdgeStyle;rounded=0;orthogonalLoop=1;jettySize=auto;html=1;entryX=0.007;entryY=0.598;entryDx=0;entryDy=0;entryPerimeter=0;exitX=-0.048;exitY=0.473;exitDx=0;exitDy=0;exitPerimeter=0;" parent="1" edge="1">
          <mxGeometry relative="1" as="geometry">
            <mxPoint x="236" y="320" as="sourcePoint" />
            <mxPoint x="241" y="364" as="targetPoint" />
            <Array as="points">
              <mxPoint x="220" y="320" />
              <mxPoint x="220" y="364" />
            </Array>
          </mxGeometry>
        </mxCell>
        <mxCell id="H-k1TDCtX4CPtIYfMN0x-16" style="edgeStyle=orthogonalEdgeStyle;rounded=0;orthogonalLoop=1;jettySize=auto;html=1;entryX=0.007;entryY=0.598;entryDx=0;entryDy=0;entryPerimeter=0;exitX=-0.048;exitY=0.473;exitDx=0;exitDy=0;exitPerimeter=0;" parent="1" edge="1">
          <mxGeometry relative="1" as="geometry">
            <mxPoint x="236" y="360" as="sourcePoint" />
            <mxPoint x="241" y="404" as="targetPoint" />
            <Array as="points">
              <mxPoint x="220" y="360" />
              <mxPoint x="220" y="404" />
            </Array>
          </mxGeometry>
        </mxCell>
        <mxCell id="H-k1TDCtX4CPtIYfMN0x-17" style="edgeStyle=orthogonalEdgeStyle;rounded=0;orthogonalLoop=1;jettySize=auto;html=1;entryX=0.495;entryY=-0.006;entryDx=0;entryDy=0;entryPerimeter=0;" parent="1" source="H-k1TDCtX4CPtIYfMN0x-2" target="H-k1TDCtX4CPtIYfMN0x-3" edge="1">
          <mxGeometry relative="1" as="geometry" />
        </mxCell>
        <mxCell id="H-k1TDCtX4CPtIYfMN0x-18" style="edgeStyle=orthogonalEdgeStyle;rounded=0;orthogonalLoop=1;jettySize=auto;html=1;entryX=-0.01;entryY=0.512;entryDx=0;entryDy=0;entryPerimeter=0;" parent="1" source="H-k1TDCtX4CPtIYfMN0x-1" target="H-k1TDCtX4CPtIYfMN0x-2" edge="1">
          <mxGeometry relative="1" as="geometry" />
        </mxCell>
        <mxCell id="H-k1TDCtX4CPtIYfMN0x-19" value="結束" style="text;html=1;align=center;verticalAlign=middle;resizable=0;points=[];autosize=1;strokeColor=#6c8ebf;fillColor=#dae8fc;" parent="1" vertex="1">
          <mxGeometry x="420" y="180" width="50" height="30" as="geometry" />
        </mxCell>
        <mxCell id="H-k1TDCtX4CPtIYfMN0x-20" style="edgeStyle=orthogonalEdgeStyle;rounded=0;orthogonalLoop=1;jettySize=auto;html=1;entryX=0;entryY=0.333;entryDx=0;entryDy=0;entryPerimeter=0;" parent="1" source="H-k1TDCtX4CPtIYfMN0x-9" target="H-k1TDCtX4CPtIYfMN0x-19" edge="1">
          <mxGeometry relative="1" as="geometry" />
        </mxCell>
        <mxCell id="H-k1TDCtX4CPtIYfMN0x-21" value="for i in range(5)" style="text;html=1;align=center;verticalAlign=middle;resizable=0;points=[];autosize=1;strokeColor=none;fillColor=none;" parent="1" vertex="1">
          <mxGeometry x="265" y="155" width="100" height="30" as="geometry" />
        </mxCell>
        <mxCell id="H-k1TDCtX4CPtIYfMN0x-22" value="i=0" style="text;html=1;align=center;verticalAlign=middle;resizable=0;points=[];autosize=1;strokeColor=none;fillColor=none;" parent="1" vertex="1">
          <mxGeometry x="295" y="209" width="40" height="30" as="geometry" />
        </mxCell>
        <mxCell id="H-k1TDCtX4CPtIYfMN0x-23" value="i=1" style="text;html=1;align=center;verticalAlign=middle;resizable=0;points=[];autosize=1;strokeColor=none;fillColor=none;" parent="1" vertex="1">
          <mxGeometry x="295" y="250" width="40" height="30" as="geometry" />
        </mxCell>
        <mxCell id="H-k1TDCtX4CPtIYfMN0x-24" value="i=2" style="text;html=1;align=center;verticalAlign=middle;resizable=0;points=[];autosize=1;strokeColor=none;fillColor=none;" parent="1" vertex="1">
          <mxGeometry x="295" y="290" width="40" height="30" as="geometry" />
        </mxCell>
        <mxCell id="H-k1TDCtX4CPtIYfMN0x-25" value="i=3" style="text;html=1;align=center;verticalAlign=middle;resizable=0;points=[];autosize=1;strokeColor=none;fillColor=none;" parent="1" vertex="1">
          <mxGeometry x="295" y="330" width="40" height="30" as="geometry" />
        </mxCell>
        <mxCell id="H-k1TDCtX4CPtIYfMN0x-26" value="i=4" style="text;html=1;align=center;verticalAlign=middle;resizable=0;points=[];autosize=1;strokeColor=none;fillColor=none;" parent="1" vertex="1">
          <mxGeometry x="294" y="370" width="40" height="30" as="geometry" />
        </mxCell>
        <mxCell id="H-k1TDCtX4CPtIYfMN0x-29" style="edgeStyle=orthogonalEdgeStyle;rounded=0;orthogonalLoop=1;jettySize=auto;html=1;" parent="1" source="H-k1TDCtX4CPtIYfMN0x-27" target="H-k1TDCtX4CPtIYfMN0x-28" edge="1">
          <mxGeometry relative="1" as="geometry" />
        </mxCell>
        <mxCell id="H-k1TDCtX4CPtIYfMN0x-27" value="我是原點" style="text;html=1;align=center;verticalAlign=middle;resizable=0;points=[];autosize=1;strokeColor=default;" parent="1" vertex="1">
          <mxGeometry x="80" y="480" width="70" height="30" as="geometry" />
        </mxCell>
        <mxCell id="H-k1TDCtX4CPtIYfMN0x-28" value="一個條件" style="text;html=1;align=center;verticalAlign=middle;resizable=0;points=[];autosize=1;strokeColor=#d6b656;fillColor=#fff2cc;" parent="1" vertex="1">
          <mxGeometry x="206" y="480" width="70" height="30" as="geometry" />
        </mxCell>
        <mxCell id="H-k1TDCtX4CPtIYfMN0x-31" value="做事" style="text;html=1;align=center;verticalAlign=middle;resizable=0;points=[];autosize=1;strokeColor=default;" parent="1" vertex="1">
          <mxGeometry x="295" y="555" width="50" height="30" as="geometry" />
        </mxCell>
        <mxCell id="H-k1TDCtX4CPtIYfMN0x-33" value="符合條件" style="text;html=1;align=center;verticalAlign=middle;resizable=0;points=[];autosize=1;strokeColor=none;fillColor=none;" parent="1" vertex="1">
          <mxGeometry x="171" y="525" width="70" height="30" as="geometry" />
        </mxCell>
        <mxCell id="H-k1TDCtX4CPtIYfMN0x-37" style="edgeStyle=orthogonalEdgeStyle;rounded=0;orthogonalLoop=1;jettySize=auto;html=1;entryX=-0.004;entryY=0.522;entryDx=0;entryDy=0;entryPerimeter=0;" parent="1" source="H-k1TDCtX4CPtIYfMN0x-28" target="H-k1TDCtX4CPtIYfMN0x-31" edge="1">
          <mxGeometry relative="1" as="geometry">
            <Array as="points">
              <mxPoint x="240" y="570" />
              <mxPoint x="275" y="570" />
            </Array>
          </mxGeometry>
        </mxCell>
        <mxCell id="H-k1TDCtX4CPtIYfMN0x-39" style="edgeStyle=orthogonalEdgeStyle;rounded=0;orthogonalLoop=1;jettySize=auto;html=1;entryX=1.008;entryY=0.693;entryDx=0;entryDy=0;entryPerimeter=0;" parent="1" source="H-k1TDCtX4CPtIYfMN0x-31" target="H-k1TDCtX4CPtIYfMN0x-28" edge="1">
          <mxGeometry relative="1" as="geometry">
            <Array as="points">
              <mxPoint x="320" y="501" />
            </Array>
          </mxGeometry>
        </mxCell>
        <mxCell id="H-k1TDCtX4CPtIYfMN0x-40" value="做完 檢查" style="text;html=1;align=center;verticalAlign=middle;resizable=0;points=[];autosize=1;strokeColor=none;fillColor=none;" parent="1" vertex="1">
          <mxGeometry x="285" y="520" width="70" height="30" as="geometry" />
        </mxCell>
        <mxCell id="H-k1TDCtX4CPtIYfMN0x-42" value="結束" style="text;html=1;align=center;verticalAlign=middle;resizable=0;points=[];autosize=1;strokeColor=#6c8ebf;fillColor=#dae8fc;" parent="1" vertex="1">
          <mxGeometry x="390" y="480" width="50" height="30" as="geometry" />
        </mxCell>
        <mxCell id="H-k1TDCtX4CPtIYfMN0x-43" value="" style="endArrow=classic;html=1;rounded=0;entryX=0;entryY=0.333;entryDx=0;entryDy=0;entryPerimeter=0;" parent="1" target="H-k1TDCtX4CPtIYfMN0x-42" edge="1">
          <mxGeometry width="50" height="50" relative="1" as="geometry">
            <mxPoint x="280" y="490" as="sourcePoint" />
            <mxPoint x="270" y="460" as="targetPoint" />
          </mxGeometry>
        </mxCell>
        <mxCell id="H-k1TDCtX4CPtIYfMN0x-44" value="未符合" style="text;html=1;align=center;verticalAlign=middle;resizable=0;points=[];autosize=1;strokeColor=none;fillColor=none;" parent="1" vertex="1">
          <mxGeometry x="307" y="465" width="60" height="30" as="geometry" />
        </mxCell>
        <mxCell id="H-k1TDCtX4CPtIYfMN0x-49" style="edgeStyle=orthogonalEdgeStyle;rounded=0;orthogonalLoop=1;jettySize=auto;html=1;" parent="1" source="H-k1TDCtX4CPtIYfMN0x-45" target="H-k1TDCtX4CPtIYfMN0x-47" edge="1">
          <mxGeometry relative="1" as="geometry" />
        </mxCell>
        <mxCell id="H-k1TDCtX4CPtIYfMN0x-45" value="我是原點" style="text;html=1;align=center;verticalAlign=middle;resizable=0;points=[];autosize=1;strokeColor=default;" parent="1" vertex="1">
          <mxGeometry x="96" y="670" width="70" height="30" as="geometry" />
        </mxCell>
        <mxCell id="H-k1TDCtX4CPtIYfMN0x-47" value="while(i&amp;gt;5)&lt;div&gt;i++&lt;/div&gt;" style="text;html=1;align=center;verticalAlign=middle;resizable=0;points=[];autosize=1;strokeColor=#d6b656;fillColor=#fff2cc;" parent="1" vertex="1">
          <mxGeometry x="219" y="665" width="80" height="40" as="geometry" />
        </mxCell>
        <mxCell id="H-k1TDCtX4CPtIYfMN0x-48" value="i=0" style="text;html=1;align=center;verticalAlign=middle;resizable=0;points=[];autosize=1;strokeColor=none;fillColor=none;" parent="1" vertex="1">
          <mxGeometry x="166" y="660" width="40" height="30" as="geometry" />
        </mxCell>
        <mxCell id="H-k1TDCtX4CPtIYfMN0x-50" value="i=0" style="text;html=1;align=center;verticalAlign=middle;resizable=0;points=[];autosize=1;strokeColor=default;" parent="1" vertex="1">
          <mxGeometry x="276" y="720" width="40" height="30" as="geometry" />
        </mxCell>
        <mxCell id="H-k1TDCtX4CPtIYfMN0x-51" value="i=1" style="text;html=1;align=center;verticalAlign=middle;resizable=0;points=[];autosize=1;strokeColor=default;" parent="1" vertex="1">
          <mxGeometry x="327" y="720" width="40" height="30" as="geometry" />
        </mxCell>
        <mxCell id="H-k1TDCtX4CPtIYfMN0x-52" value="i=2" style="text;html=1;align=center;verticalAlign=middle;resizable=0;points=[];autosize=1;strokeColor=default;" parent="1" vertex="1">
          <mxGeometry x="380" y="720" width="40" height="30" as="geometry" />
        </mxCell>
        <mxCell id="H-k1TDCtX4CPtIYfMN0x-53" value="i=3" style="text;html=1;align=center;verticalAlign=middle;resizable=0;points=[];autosize=1;strokeColor=default;" parent="1" vertex="1">
          <mxGeometry x="276" y="760" width="40" height="30" as="geometry" />
        </mxCell>
        <mxCell id="H-k1TDCtX4CPtIYfMN0x-54" value="i=4" style="text;html=1;align=center;verticalAlign=middle;resizable=0;points=[];autosize=1;strokeColor=default;" parent="1" vertex="1">
          <mxGeometry x="327" y="760" width="40" height="30" as="geometry" />
        </mxCell>
        <mxCell id="H-k1TDCtX4CPtIYfMN0x-55" style="edgeStyle=orthogonalEdgeStyle;rounded=0;orthogonalLoop=1;jettySize=auto;html=1;entryX=1.005;entryY=0.484;entryDx=0;entryDy=0;entryPerimeter=0;exitX=0.458;exitY=1.04;exitDx=0;exitDy=0;exitPerimeter=0;" parent="1" source="H-k1TDCtX4CPtIYfMN0x-47" target="H-k1TDCtX4CPtIYfMN0x-47" edge="1">
          <mxGeometry relative="1" as="geometry">
            <Array as="points">
              <mxPoint x="256" y="800" />
              <mxPoint x="440" y="800" />
              <mxPoint x="440" y="684" />
            </Array>
          </mxGeometry>
        </mxCell>
        <mxCell id="H-k1TDCtX4CPtIYfMN0x-56" value="結束" style="text;html=1;align=center;verticalAlign=middle;resizable=0;points=[];autosize=1;strokeColor=#6c8ebf;fillColor=#dae8fc;" parent="1" vertex="1">
          <mxGeometry x="460" y="670" width="50" height="30" as="geometry" />
        </mxCell>
        <mxCell id="H-k1TDCtX4CPtIYfMN0x-57" value="" style="endArrow=classic;html=1;rounded=0;entryX=0;entryY=0.333;entryDx=0;entryDy=0;entryPerimeter=0;" parent="1" target="H-k1TDCtX4CPtIYfMN0x-56" edge="1">
          <mxGeometry width="50" height="50" relative="1" as="geometry">
            <mxPoint x="299" y="680" as="sourcePoint" />
            <mxPoint x="289" y="650" as="targetPoint" />
          </mxGeometry>
        </mxCell>
        <mxCell id="H-k1TDCtX4CPtIYfMN0x-58" value="未符合" style="text;html=1;align=center;verticalAlign=middle;resizable=0;points=[];autosize=1;strokeColor=none;fillColor=none;" parent="1" vertex="1">
          <mxGeometry x="326" y="655" width="60" height="30" as="geometry" />
        </mxCell>
        <mxCell id="H-k1TDCtX4CPtIYfMN0x-59" value="i=5" style="text;html=1;align=center;verticalAlign=middle;resizable=0;points=[];autosize=1;strokeColor=default;" parent="1" vertex="1">
          <mxGeometry x="380" y="760" width="40" height="30" as="geometry" />
        </mxCell>
        <mxCell id="H-k1TDCtX4CPtIYfMN0x-74" style="edgeStyle=orthogonalEdgeStyle;rounded=0;orthogonalLoop=1;jettySize=auto;html=1;" parent="1" source="H-k1TDCtX4CPtIYfMN0x-75" target="H-k1TDCtX4CPtIYfMN0x-76" edge="1">
          <mxGeometry relative="1" as="geometry" />
        </mxCell>
        <mxCell id="H-k1TDCtX4CPtIYfMN0x-75" value="我是原點" style="text;html=1;align=center;verticalAlign=middle;resizable=0;points=[];autosize=1;strokeColor=default;" parent="1" vertex="1">
          <mxGeometry x="89" y="845" width="70" height="30" as="geometry" />
        </mxCell>
        <mxCell id="H-k1TDCtX4CPtIYfMN0x-76" value="while(i&amp;gt;5)&lt;div&gt;i++&lt;/div&gt;" style="text;html=1;align=center;verticalAlign=middle;resizable=0;points=[];autosize=1;strokeColor=#d6b656;fillColor=#fff2cc;" parent="1" vertex="1">
          <mxGeometry x="212" y="840" width="80" height="40" as="geometry" />
        </mxCell>
        <mxCell id="H-k1TDCtX4CPtIYfMN0x-77" value="i=0" style="text;html=1;align=center;verticalAlign=middle;resizable=0;points=[];autosize=1;strokeColor=none;fillColor=none;" parent="1" vertex="1">
          <mxGeometry x="159" y="835" width="40" height="30" as="geometry" />
        </mxCell>
        <mxCell id="H-k1TDCtX4CPtIYfMN0x-78" value="i=0" style="text;html=1;align=center;verticalAlign=middle;resizable=0;points=[];autosize=1;strokeColor=default;" parent="1" vertex="1">
          <mxGeometry x="269" y="895" width="40" height="30" as="geometry" />
        </mxCell>
        <mxCell id="H-k1TDCtX4CPtIYfMN0x-79" value="i=1" style="text;html=1;align=center;verticalAlign=middle;resizable=0;points=[];autosize=1;strokeColor=default;" parent="1" vertex="1">
          <mxGeometry x="320" y="895" width="40" height="30" as="geometry" />
        </mxCell>
        <mxCell id="H-k1TDCtX4CPtIYfMN0x-80" value="i=2" style="text;html=1;align=center;verticalAlign=middle;resizable=0;points=[];autosize=1;strokeColor=default;" parent="1" vertex="1">
          <mxGeometry x="373" y="895" width="40" height="30" as="geometry" />
        </mxCell>
        <mxCell id="H-k1TDCtX4CPtIYfMN0x-89" style="edgeStyle=orthogonalEdgeStyle;rounded=0;orthogonalLoop=1;jettySize=auto;html=1;strokeColor=#FF0000;" parent="1" source="H-k1TDCtX4CPtIYfMN0x-81" target="H-k1TDCtX4CPtIYfMN0x-84" edge="1">
          <mxGeometry relative="1" as="geometry" />
        </mxCell>
        <mxCell id="H-k1TDCtX4CPtIYfMN0x-81" value="i=3" style="text;html=1;align=center;verticalAlign=middle;resizable=0;points=[];autosize=1;strokeColor=#b85450;fillColor=#f8cecc;" parent="1" vertex="1">
          <mxGeometry x="269" y="935" width="40" height="30" as="geometry" />
        </mxCell>
        <mxCell id="H-k1TDCtX4CPtIYfMN0x-83" style="edgeStyle=orthogonalEdgeStyle;rounded=0;orthogonalLoop=1;jettySize=auto;html=1;entryX=1.005;entryY=0.484;entryDx=0;entryDy=0;entryPerimeter=0;exitX=0.458;exitY=1.04;exitDx=0;exitDy=0;exitPerimeter=0;" parent="1" source="H-k1TDCtX4CPtIYfMN0x-76" target="H-k1TDCtX4CPtIYfMN0x-76" edge="1">
          <mxGeometry relative="1" as="geometry">
            <Array as="points">
              <mxPoint x="249" y="975" />
              <mxPoint x="433" y="975" />
              <mxPoint x="433" y="859" />
            </Array>
          </mxGeometry>
        </mxCell>
        <mxCell id="H-k1TDCtX4CPtIYfMN0x-84" value="結束" style="text;html=1;align=center;verticalAlign=middle;resizable=0;points=[];autosize=1;strokeColor=#6c8ebf;fillColor=#dae8fc;" parent="1" vertex="1">
          <mxGeometry x="453" y="845" width="50" height="30" as="geometry" />
        </mxCell>
        <mxCell id="H-k1TDCtX4CPtIYfMN0x-85" value="" style="endArrow=classic;html=1;rounded=0;entryX=0;entryY=0.333;entryDx=0;entryDy=0;entryPerimeter=0;" parent="1" target="H-k1TDCtX4CPtIYfMN0x-84" edge="1">
          <mxGeometry width="50" height="50" relative="1" as="geometry">
            <mxPoint x="292" y="855" as="sourcePoint" />
            <mxPoint x="282" y="825" as="targetPoint" />
          </mxGeometry>
        </mxCell>
        <mxCell id="H-k1TDCtX4CPtIYfMN0x-86" value="未符合" style="text;html=1;align=center;verticalAlign=middle;resizable=0;points=[];autosize=1;strokeColor=none;fillColor=none;" parent="1" vertex="1">
          <mxGeometry x="319" y="830" width="60" height="30" as="geometry" />
        </mxCell>
        <mxCell id="H-k1TDCtX4CPtIYfMN0x-88" value="&lt;span style=&quot;background-color: rgb(255, 217, 102);&quot;&gt;if i=3 =&amp;gt; break&lt;/span&gt;" style="text;html=1;align=center;verticalAlign=middle;resizable=0;points=[];autosize=1;strokeColor=none;fillColor=none;" parent="1" vertex="1">
          <mxGeometry x="299" y="860" width="100" height="30" as="geometry" />
        </mxCell>
        <mxCell id="H-k1TDCtX4CPtIYfMN0x-91" style="edgeStyle=orthogonalEdgeStyle;rounded=0;orthogonalLoop=1;jettySize=auto;html=1;" parent="1" source="H-k1TDCtX4CPtIYfMN0x-92" target="H-k1TDCtX4CPtIYfMN0x-93" edge="1">
          <mxGeometry relative="1" as="geometry" />
        </mxCell>
        <mxCell id="H-k1TDCtX4CPtIYfMN0x-92" value="我是原點" style="text;html=1;align=center;verticalAlign=middle;resizable=0;points=[];autosize=1;strokeColor=default;" parent="1" vertex="1">
          <mxGeometry x="89" y="1025" width="70" height="30" as="geometry" />
        </mxCell>
        <mxCell id="H-k1TDCtX4CPtIYfMN0x-93" value="while(i&amp;gt;5)&lt;div&gt;i++&lt;/div&gt;" style="text;html=1;align=center;verticalAlign=middle;resizable=0;points=[];autosize=1;strokeColor=#d6b656;fillColor=#fff2cc;" parent="1" vertex="1">
          <mxGeometry x="212" y="1020" width="80" height="40" as="geometry" />
        </mxCell>
        <mxCell id="H-k1TDCtX4CPtIYfMN0x-94" value="i=0" style="text;html=1;align=center;verticalAlign=middle;resizable=0;points=[];autosize=1;strokeColor=none;fillColor=none;" parent="1" vertex="1">
          <mxGeometry x="159" y="1015" width="40" height="30" as="geometry" />
        </mxCell>
        <mxCell id="H-k1TDCtX4CPtIYfMN0x-95" value="i=0" style="text;html=1;align=center;verticalAlign=middle;resizable=0;points=[];autosize=1;strokeColor=default;" parent="1" vertex="1">
          <mxGeometry x="269" y="1075" width="40" height="30" as="geometry" />
        </mxCell>
        <mxCell id="H-k1TDCtX4CPtIYfMN0x-96" value="i=1" style="text;html=1;align=center;verticalAlign=middle;resizable=0;points=[];autosize=1;strokeColor=default;" parent="1" vertex="1">
          <mxGeometry x="320" y="1075" width="40" height="30" as="geometry" />
        </mxCell>
        <mxCell id="H-k1TDCtX4CPtIYfMN0x-97" value="i=2" style="text;html=1;align=center;verticalAlign=middle;resizable=0;points=[];autosize=1;strokeColor=default;" parent="1" vertex="1">
          <mxGeometry x="373" y="1075" width="40" height="30" as="geometry" />
        </mxCell>
        <mxCell id="H-k1TDCtX4CPtIYfMN0x-98" value="i=3" style="text;html=1;align=center;verticalAlign=middle;resizable=0;points=[];autosize=1;strokeColor=#6F0000;fillColor=#a20025;fontColor=#ffffff;" parent="1" vertex="1">
          <mxGeometry x="269" y="1115" width="40" height="30" as="geometry" />
        </mxCell>
        <mxCell id="H-k1TDCtX4CPtIYfMN0x-99" value="i=4" style="text;html=1;align=center;verticalAlign=middle;resizable=0;points=[];autosize=1;strokeColor=default;" parent="1" vertex="1">
          <mxGeometry x="320" y="1115" width="40" height="30" as="geometry" />
        </mxCell>
        <mxCell id="H-k1TDCtX4CPtIYfMN0x-100" style="edgeStyle=orthogonalEdgeStyle;rounded=0;orthogonalLoop=1;jettySize=auto;html=1;entryX=1.005;entryY=0.484;entryDx=0;entryDy=0;entryPerimeter=0;exitX=0.458;exitY=1.04;exitDx=0;exitDy=0;exitPerimeter=0;" parent="1" source="H-k1TDCtX4CPtIYfMN0x-93" target="H-k1TDCtX4CPtIYfMN0x-93" edge="1">
          <mxGeometry relative="1" as="geometry">
            <Array as="points">
              <mxPoint x="249" y="1155" />
              <mxPoint x="433" y="1155" />
              <mxPoint x="433" y="1039" />
            </Array>
          </mxGeometry>
        </mxCell>
        <mxCell id="H-k1TDCtX4CPtIYfMN0x-101" value="結束" style="text;html=1;align=center;verticalAlign=middle;resizable=0;points=[];autosize=1;strokeColor=#6c8ebf;fillColor=#dae8fc;" parent="1" vertex="1">
          <mxGeometry x="453" y="1025" width="50" height="30" as="geometry" />
        </mxCell>
        <mxCell id="H-k1TDCtX4CPtIYfMN0x-102" value="" style="endArrow=classic;html=1;rounded=0;entryX=0;entryY=0.333;entryDx=0;entryDy=0;entryPerimeter=0;" parent="1" target="H-k1TDCtX4CPtIYfMN0x-101" edge="1">
          <mxGeometry width="50" height="50" relative="1" as="geometry">
            <mxPoint x="292" y="1035" as="sourcePoint" />
            <mxPoint x="282" y="1005" as="targetPoint" />
          </mxGeometry>
        </mxCell>
        <mxCell id="H-k1TDCtX4CPtIYfMN0x-103" value="未符合" style="text;html=1;align=center;verticalAlign=middle;resizable=0;points=[];autosize=1;strokeColor=none;fillColor=none;" parent="1" vertex="1">
          <mxGeometry x="319" y="1010" width="60" height="30" as="geometry" />
        </mxCell>
        <mxCell id="H-k1TDCtX4CPtIYfMN0x-104" value="i=5" style="text;html=1;align=center;verticalAlign=middle;resizable=0;points=[];autosize=1;strokeColor=default;" parent="1" vertex="1">
          <mxGeometry x="373" y="1115" width="40" height="30" as="geometry" />
        </mxCell>
        <mxCell id="H-k1TDCtX4CPtIYfMN0x-105" value="&lt;span style=&quot;background-color: rgb(255, 217, 102);&quot;&gt;if i=3 =&amp;gt; continue&lt;/span&gt;" style="text;html=1;align=center;verticalAlign=middle;resizable=0;points=[];autosize=1;strokeColor=none;fillColor=none;" parent="1" vertex="1">
          <mxGeometry x="285" y="1045" width="120" height="30" as="geometry" />
        </mxCell>
        <mxCell id="rUu0icWJL4fqNZ-BOi2n-1" value="主程式" style="text;html=1;align=center;verticalAlign=middle;resizable=0;points=[];autosize=1;strokeColor=#6c8ebf;fillColor=#dae8fc;" vertex="1" parent="1">
          <mxGeometry x="520" y="340" width="60" height="30" as="geometry" />
        </mxCell>
        <mxCell id="rUu0icWJL4fqNZ-BOi2n-18" style="edgeStyle=orthogonalEdgeStyle;rounded=0;orthogonalLoop=1;jettySize=auto;html=1;entryX=0;entryY=0.5;entryDx=0;entryDy=0;" edge="1" parent="1" source="rUu0icWJL4fqNZ-BOi2n-2" target="rUu0icWJL4fqNZ-BOi2n-17">
          <mxGeometry relative="1" as="geometry" />
        </mxCell>
        <mxCell id="rUu0icWJL4fqNZ-BOi2n-2" value="函數1" style="text;html=1;align=center;verticalAlign=middle;resizable=0;points=[];autosize=1;strokeColor=#d6b656;fillColor=#fff2cc;" vertex="1" parent="1">
          <mxGeometry x="620" y="390" width="50" height="30" as="geometry" />
        </mxCell>
        <mxCell id="rUu0icWJL4fqNZ-BOi2n-13" value="" style="endArrow=classic;html=1;rounded=0;" edge="1" parent="1">
          <mxGeometry width="50" height="50" relative="1" as="geometry">
            <mxPoint x="520" y="330" as="sourcePoint" />
            <mxPoint x="810" y="330" as="targetPoint" />
          </mxGeometry>
        </mxCell>
        <mxCell id="rUu0icWJL4fqNZ-BOi2n-14" value="程式讀取方向" style="text;html=1;align=center;verticalAlign=middle;resizable=0;points=[];autosize=1;strokeColor=none;fillColor=none;" vertex="1" parent="1">
          <mxGeometry x="610" y="300" width="100" height="30" as="geometry" />
        </mxCell>
        <mxCell id="rUu0icWJL4fqNZ-BOi2n-15" value="" style="endArrow=classic;html=1;rounded=0;exitX=0.474;exitY=1.019;exitDx=0;exitDy=0;exitPerimeter=0;entryX=-0.022;entryY=0.495;entryDx=0;entryDy=0;entryPerimeter=0;" edge="1" parent="1" source="rUu0icWJL4fqNZ-BOi2n-1" target="rUu0icWJL4fqNZ-BOi2n-2">
          <mxGeometry width="50" height="50" relative="1" as="geometry">
            <mxPoint x="530" y="340" as="sourcePoint" />
            <mxPoint x="820" y="340" as="targetPoint" />
          </mxGeometry>
        </mxCell>
        <mxCell id="rUu0icWJL4fqNZ-BOi2n-16" value="呼叫" style="text;html=1;align=center;verticalAlign=middle;resizable=0;points=[];autosize=1;strokeColor=none;fillColor=none;" vertex="1" parent="1">
          <mxGeometry x="545" y="378" width="50" height="30" as="geometry" />
        </mxCell>
        <mxCell id="rUu0icWJL4fqNZ-BOi2n-17" value="解決" style="ellipse;whiteSpace=wrap;html=1;aspect=fixed;dashed=1;" vertex="1" parent="1">
          <mxGeometry x="720" y="380" width="50" height="50" as="geometry" />
        </mxCell>
        <mxCell id="rUu0icWJL4fqNZ-BOi2n-19" value="主程式" style="text;html=1;align=center;verticalAlign=middle;resizable=0;points=[];autosize=1;strokeColor=#6c8ebf;fillColor=#dae8fc;" vertex="1" parent="1">
          <mxGeometry x="850" y="340" width="60" height="30" as="geometry" />
        </mxCell>
        <mxCell id="rUu0icWJL4fqNZ-BOi2n-21" value="函數1" style="text;html=1;align=center;verticalAlign=middle;resizable=0;points=[];autosize=1;strokeColor=#d6b656;fillColor=#fff2cc;" vertex="1" parent="1">
          <mxGeometry x="950" y="390" width="50" height="30" as="geometry" />
        </mxCell>
        <mxCell id="rUu0icWJL4fqNZ-BOi2n-22" value="" style="endArrow=classic;html=1;rounded=0;" edge="1" parent="1">
          <mxGeometry width="50" height="50" relative="1" as="geometry">
            <mxPoint x="850" y="330" as="sourcePoint" />
            <mxPoint x="1270" y="330" as="targetPoint" />
          </mxGeometry>
        </mxCell>
        <mxCell id="rUu0icWJL4fqNZ-BOi2n-23" value="程式讀取方向" style="text;html=1;align=center;verticalAlign=middle;resizable=0;points=[];autosize=1;strokeColor=none;fillColor=none;" vertex="1" parent="1">
          <mxGeometry x="1020" y="300" width="100" height="30" as="geometry" />
        </mxCell>
        <mxCell id="rUu0icWJL4fqNZ-BOi2n-24" value="" style="endArrow=classic;html=1;rounded=0;exitX=0.474;exitY=1.019;exitDx=0;exitDy=0;exitPerimeter=0;entryX=-0.022;entryY=0.495;entryDx=0;entryDy=0;entryPerimeter=0;" edge="1" parent="1" source="rUu0icWJL4fqNZ-BOi2n-19" target="rUu0icWJL4fqNZ-BOi2n-21">
          <mxGeometry width="50" height="50" relative="1" as="geometry">
            <mxPoint x="860" y="340" as="sourcePoint" />
            <mxPoint x="1150" y="340" as="targetPoint" />
          </mxGeometry>
        </mxCell>
        <mxCell id="rUu0icWJL4fqNZ-BOi2n-25" value="呼叫" style="text;html=1;align=center;verticalAlign=middle;resizable=0;points=[];autosize=1;strokeColor=none;fillColor=none;" vertex="1" parent="1">
          <mxGeometry x="875" y="378" width="50" height="30" as="geometry" />
        </mxCell>
        <mxCell id="rUu0icWJL4fqNZ-BOi2n-27" value="主程式" style="text;html=1;align=center;verticalAlign=middle;resizable=0;points=[];autosize=1;strokeColor=#6c8ebf;fillColor=#dae8fc;" vertex="1" parent="1">
          <mxGeometry x="1040" y="340" width="60" height="30" as="geometry" />
        </mxCell>
        <mxCell id="rUu0icWJL4fqNZ-BOi2n-28" value="" style="endArrow=classic;html=1;rounded=0;exitX=0.997;exitY=0.59;exitDx=0;exitDy=0;exitPerimeter=0;entryX=0.498;entryY=0.987;entryDx=0;entryDy=0;entryPerimeter=0;" edge="1" parent="1" source="rUu0icWJL4fqNZ-BOi2n-21" target="rUu0icWJL4fqNZ-BOi2n-27">
          <mxGeometry width="50" height="50" relative="1" as="geometry">
            <mxPoint x="888" y="381" as="sourcePoint" />
            <mxPoint x="959" y="415" as="targetPoint" />
          </mxGeometry>
        </mxCell>
        <mxCell id="rUu0icWJL4fqNZ-BOi2n-29" value="回傳" style="text;html=1;align=center;verticalAlign=middle;resizable=0;points=[];autosize=1;strokeColor=none;fillColor=none;" vertex="1" parent="1">
          <mxGeometry x="1020" y="380" width="50" height="30" as="geometry" />
        </mxCell>
        <mxCell id="rUu0icWJL4fqNZ-BOi2n-32" value="函數2" style="text;html=1;align=center;verticalAlign=middle;resizable=0;points=[];autosize=1;strokeColor=#d6b656;fillColor=#fff2cc;" vertex="1" parent="1">
          <mxGeometry x="1140" y="390" width="50" height="30" as="geometry" />
        </mxCell>
        <mxCell id="rUu0icWJL4fqNZ-BOi2n-33" value="" style="endArrow=classic;html=1;rounded=0;exitX=0.474;exitY=1.019;exitDx=0;exitDy=0;exitPerimeter=0;entryX=-0.022;entryY=0.495;entryDx=0;entryDy=0;entryPerimeter=0;" edge="1" parent="1">
          <mxGeometry width="50" height="50" relative="1" as="geometry">
            <mxPoint x="1070" y="370" as="sourcePoint" />
            <mxPoint x="1141" y="404" as="targetPoint" />
          </mxGeometry>
        </mxCell>
        <mxCell id="rUu0icWJL4fqNZ-BOi2n-34" value="呼叫" style="text;html=1;align=center;verticalAlign=middle;resizable=0;points=[];autosize=1;strokeColor=none;fillColor=none;" vertex="1" parent="1">
          <mxGeometry x="1070" y="380" width="50" height="30" as="geometry" />
        </mxCell>
      </root>
    </mxGraphModel>
  </diagram>
</mxfile>
